<svg width="21" height="21" viewBox="0 0 21 21" fill="none" xmlns="http://www.w3.org/2000/svg">
<g clip-path="url(#clip0_14_83)">
<path d="M1.75 18.375V2.625C1.75 2.39294 1.84219 2.17038 2.00628 2.00628C2.17038 1.84219 2.39294 1.75 2.625 1.75H7V0H2.625C1.92881 0 1.26113 0.276562 0.768845 0.768845C0.276562 1.26113 0 1.92881 0 2.625L0 18.375C0 19.0712 0.276562 19.7389 0.768845 20.2312C1.26113 20.7234 1.92881 21 2.625 21H7V19.25H2.625C2.39294 19.25 2.17038 19.1578 2.00628 18.9937C1.84219 18.8296 1.75 18.6071 1.75 18.375Z" fill="black"/>
<path d="M20.2326 8.6441L16.2199 4.63135L14.9826 5.8686L18.7136 9.5996L4.375 9.62497V11.375L18.7626 11.3496L14.9809 15.1313L16.2181 16.3686L20.2309 12.3558C20.7232 11.8638 21 11.1964 21.0003 10.5003C21.0006 9.80428 20.7245 9.13659 20.2326 8.6441Z" fill="black"/>
</g>
<defs>
<clipPath id="clip0_14_83">
<rect width="21" height="21" fill="white"/>
</clipPath>
</defs>
</svg>
