<svg width="23" height="23" viewBox="0 0 23 23" fill="none" xmlns="http://www.w3.org/2000/svg">
<g clip-path="url(#clip0_5_534)">
<path d="M18.2083 0.958496H4.79167C3.5213 0.960018 2.30341 1.46534 1.40513 2.36362C0.506845 3.26191 0.0015217 4.4798 0 5.75016L0 17.2502C0.0015217 18.5205 0.506845 19.7384 1.40513 20.6367C2.30341 21.535 3.5213 22.0403 4.79167 22.0418H18.2083C19.4787 22.0403 20.6966 21.535 21.5949 20.6367C22.4932 19.7384 22.9985 18.5205 23 17.2502V5.75016C22.9985 4.4798 22.4932 3.26191 21.5949 2.36362C20.6966 1.46534 19.4787 0.960018 18.2083 0.958496ZM4.79167 2.87516H18.2083C18.9708 2.87516 19.7021 3.17806 20.2413 3.71723C20.7804 4.2564 21.0833 4.98767 21.0833 5.75016V6.7085H1.91667V5.75016C1.91667 4.98767 2.21957 4.2564 2.75873 3.71723C3.2979 3.17806 4.02917 2.87516 4.79167 2.87516ZM18.2083 20.1252H4.79167C4.02917 20.1252 3.2979 19.8223 2.75873 19.2831C2.21957 18.7439 1.91667 18.0127 1.91667 17.2502V8.62516H21.0833V17.2502C21.0833 18.0127 20.7804 18.7439 20.2413 19.2831C19.7021 19.8223 18.9708 20.1252 18.2083 20.1252ZM18.2083 12.4585C18.2083 12.7127 18.1074 12.9564 17.9276 13.1361C17.7479 13.3159 17.5042 13.4168 17.25 13.4168H5.75C5.49583 13.4168 5.25208 13.3159 5.07236 13.1361C4.89263 12.9564 4.79167 12.7127 4.79167 12.4585C4.79167 12.2043 4.89263 11.9606 5.07236 11.7809C5.25208 11.6011 5.49583 11.5002 5.75 11.5002H17.25C17.5042 11.5002 17.7479 11.6011 17.9276 11.7809C18.1074 11.9606 18.2083 12.2043 18.2083 12.4585ZM14.375 16.2918C14.375 16.546 14.274 16.7898 14.0943 16.9695C13.9146 17.1492 13.6708 17.2502 13.4167 17.2502H5.75C5.49583 17.2502 5.25208 17.1492 5.07236 16.9695C4.89263 16.7898 4.79167 16.546 4.79167 16.2918C4.79167 16.0377 4.89263 15.7939 5.07236 15.6142C5.25208 15.4345 5.49583 15.3335 5.75 15.3335H13.4167C13.6708 15.3335 13.9146 15.4345 14.0943 15.6142C14.274 15.7939 14.375 16.0377 14.375 16.2918ZM2.875 4.79183C2.875 4.60229 2.93121 4.41701 3.03651 4.25941C3.14181 4.10181 3.29148 3.97898 3.46659 3.90645C3.64171 3.83391 3.8344 3.81493 4.02029 3.85191C4.20619 3.88889 4.37695 3.98016 4.51098 4.11419C4.645 4.24821 4.73628 4.41897 4.77325 4.60487C4.81023 4.79077 4.79125 4.98346 4.71872 5.15857C4.64618 5.33368 4.52335 5.48335 4.36575 5.58865C4.20816 5.69396 4.02287 5.75016 3.83333 5.75016C3.57917 5.75016 3.33541 5.6492 3.15569 5.46947C2.97597 5.28975 2.875 5.046 2.875 4.79183ZM5.75 4.79183C5.75 4.60229 5.80621 4.41701 5.91151 4.25941C6.01681 4.10181 6.16648 3.97898 6.3416 3.90645C6.51671 3.83391 6.7094 3.81493 6.89529 3.85191C7.08119 3.88889 7.25195 3.98016 7.38598 4.11419C7.52 4.24821 7.61128 4.41897 7.64825 4.60487C7.68523 4.79077 7.66625 4.98346 7.59372 5.15857C7.52118 5.33368 7.39835 5.48335 7.24075 5.58865C7.08316 5.69396 6.89787 5.75016 6.70833 5.75016C6.45417 5.75016 6.21041 5.6492 6.03069 5.46947C5.85097 5.28975 5.75 5.046 5.75 4.79183ZM8.625 4.79183C8.625 4.60229 8.6812 4.41701 8.78651 4.25941C8.89181 4.10181 9.04148 3.97898 9.21659 3.90645C9.39171 3.83391 9.5844 3.81493 9.77029 3.85191C9.95619 3.88889 10.127 3.98016 10.261 4.11419C10.395 4.24821 10.4863 4.41897 10.5233 4.60487C10.5602 4.79077 10.5413 4.98346 10.4687 5.15857C10.3962 5.33368 10.2734 5.48335 10.1158 5.58865C9.95816 5.69396 9.77287 5.75016 9.58333 5.75016C9.32917 5.75016 9.08541 5.6492 8.90569 5.46947C8.72597 5.28975 8.625 5.046 8.625 4.79183Z" fill="#000000"/>
</g>
<defs>
<clipPath id="clip0_5_534">
<rect width="23" height="23" fill="white"/>
</clipPath>
</defs>
</svg>
