<?xml version="1.0" encoding="UTF-8"?>
<!DOCTYPE svg PUBLIC "-//W3C//DTD SVG 1.1//EN" "http://www.w3.org/Graphics/SVG/1.1/DTD/svg11.dtd">
<svg xmlns="http://www.w3.org/2000/svg" version="1.1" width="1920px" height="1080px" style="shape-rendering:geometricPrecision; text-rendering:geometricPrecision; image-rendering:optimizeQuality; fill-rule:evenodd; clip-rule:evenodd" xmlns:xlink="http://www.w3.org/1999/xlink">
<g><path style="opacity:0.997" fill="#ff1308" d="M 772.5,60.5 C 905.097,61.3316 1037.76,61.8316 1170.5,62C 1264.64,155.139 1358.47,248.639 1452,342.5C 1451.18,472.709 1451.34,602.875 1452.5,733C 1358.19,827.64 1263.53,921.973 1168.5,1016C 1036.5,1016.67 904.5,1016.67 772.5,1016C 679.64,923.14 586.806,830.306 494,737.5C 493.66,605.126 493.326,472.792 493,340.5C 586.395,247.272 679.562,153.938 772.5,60.5 Z M 800.5,88.5 C 914.999,87.5005 1029.67,87.1672 1144.5,87.5C 1144.65,88.552 1144.48,89.552 1144,90.5C 1087.32,147.347 1030.49,204.014 973.5,260.5C 915.812,203.146 858.146,145.812 800.5,88.5 Z M 1170.5,99.5 C 1252.58,180.083 1334.25,261.25 1415.5,343C 1333.83,343.5 1252.17,343.667 1170.5,343.5C 1170.5,262.167 1170.5,180.833 1170.5,99.5 Z M 768.5,101.5 C 769.499,180.998 769.833,260.665 769.5,340.5C 689.665,340.833 609.998,340.499 530.5,339.5C 610.167,260.5 689.5,181.167 768.5,101.5 Z M 796.5,120.5 C 849.146,173.479 901.812,226.479 954.5,279.5C 934.681,299.82 914.681,319.986 894.5,340C 861.502,340.5 828.502,340.667 795.5,340.5C 795.167,266.998 795.501,193.665 796.5,120.5 Z M 1143.5,126.5 C 1144.5,198.665 1144.83,270.998 1144.5,343.5C 1114.83,343.667 1085.16,343.5 1055.5,343C 1034.17,321.667 1012.83,300.333 991.5,279C 1042.37,228.299 1093.03,177.465 1143.5,126.5 Z M 1018.5,342.5 C 1018.61,343.117 1018.94,343.617 1019.5,344C 1003.63,359.701 987.965,375.535 972.5,391.5C 956.585,377.088 941.085,362.088 926,346.5C 925.333,345.833 925.333,345.167 926,344.5C 941.667,328.833 957.333,313.167 973,297.5C 988.035,312.702 1003.2,327.702 1018.5,342.5 Z M 1049.5,350.5 C 1050.5,378.995 1050.83,407.662 1050.5,436.5C 1038.83,436.5 1027.17,436.5 1015.5,436.5C 1007.19,427.854 998.855,419.187 990.5,410.5C 1010.19,390.479 1029.85,370.479 1049.5,350.5 Z M 895.5,352.5 C 914.167,371.833 933.167,390.833 952.5,409.5C 944.556,418.78 936.223,427.78 927.5,436.5C 916.5,436.5 905.5,436.5 894.5,436.5C 894.169,408.328 894.502,380.328 895.5,352.5 Z M 549.5,367.5 C 622.665,366.501 695.998,366.167 769.5,366.5C 769.667,398.168 769.5,429.835 769,461.5C 748.32,482.347 727.486,503.014 706.5,523.5C 654.146,471.479 601.812,419.479 549.5,367.5 Z M 795.5,366.5 C 819.833,366.5 844.167,366.5 868.5,366.5C 868.5,389.833 868.5,413.167 868.5,436.5C 844.167,436.5 819.833,436.5 795.5,436.5C 795.5,413.167 795.5,389.833 795.5,366.5 Z M 1076.5,368.5 C 1099.17,368.5 1121.83,368.5 1144.5,368.5C 1144.5,391.167 1144.5,413.833 1144.5,436.5C 1121.83,436.5 1099.17,436.5 1076.5,436.5C 1076.5,413.833 1076.5,391.167 1076.5,368.5 Z M 1170.5,368.5 C 1245.5,368.333 1320.5,368.5 1395.5,369C 1344.33,420.167 1293.17,471.333 1242,522.5C 1218.33,498.833 1194.67,475.167 1171,451.5C 1170.5,423.835 1170.33,396.169 1170.5,368.5 Z M 520.5,374.5 C 576.146,430.479 631.812,486.479 687.5,542.5C 631.812,598.521 576.146,654.521 520.5,710.5C 519.167,598.5 519.167,486.5 520.5,374.5 Z M 1424.5,375.5 C 1425.67,485.333 1425.83,595.333 1425,705.5C 1369.99,650.653 1315.15,595.653 1260.5,540.5C 1315.19,485.479 1369.85,430.479 1424.5,375.5 Z M 978.5,435.5 C 973.833,436.833 969.167,436.833 964.5,435.5C 966.814,433.523 969.147,431.523 971.5,429.5C 973.853,431.523 976.186,433.523 978.5,435.5 Z M 786.5,463.5 C 813.662,462.502 840.995,462.169 868.5,462.5C 868.5,473.5 868.5,484.5 868.5,495.5C 860.167,503.5 851.833,511.5 843.5,519.5C 824.5,500.833 805.5,482.167 786.5,463.5 Z M 894.5,462.5 C 896.527,462.338 898.527,462.505 900.5,463C 898.627,464.704 896.96,466.537 895.5,468.5C 894.539,466.735 894.205,464.735 894.5,462.5 Z M 937.5,462.5 C 960.169,462.333 982.836,462.5 1005.5,463C 1020.33,477.833 1035.17,492.667 1050,507.5C 1050.67,527.833 1050.67,548.167 1050,568.5C 1034.5,584 1019,599.5 1003.5,615C 981.833,615.667 960.167,615.667 938.5,615C 924,600.5 909.5,586 895,571.5C 894.333,549.5 894.333,527.5 895,505.5C 909.369,491.299 923.535,476.965 937.5,462.5 Z M 1042.5,463.5 C 1044.95,462.527 1047.61,462.194 1050.5,462.5C 1050.81,465.385 1050.47,468.052 1049.5,470.5C 1047.5,467.833 1045.17,465.5 1042.5,463.5 Z M 1076.5,462.5 C 1103.01,462.169 1129.34,462.502 1155.5,463.5C 1136.53,481.965 1117.7,500.632 1099,519.5C 1091.67,512.167 1084.33,504.833 1077,497.5C 1076.5,485.838 1076.33,474.171 1076.5,462.5 Z M 1168.5,485.5 C 1187.15,503.479 1205.48,521.812 1223.5,540.5C 1206.51,557.986 1189.35,575.319 1172,592.5C 1153.65,574.319 1135.49,555.986 1117.5,537.5C 1134.52,520.146 1151.52,502.813 1168.5,485.5 Z M 825.5,537.5 C 808.167,555.167 790.833,572.833 773.5,590.5C 757.035,574.535 740.701,558.368 724.5,542C 742,524.5 759.5,507 777,489.5C 793.035,505.702 809.201,521.702 825.5,537.5 Z M 867.5,532.5 C 868.833,536.5 868.833,540.5 867.5,544.5C 865.856,542.519 864.19,540.519 862.5,538.5C 864.19,536.481 865.856,534.481 867.5,532.5 Z M 1077.5,534.5 C 1078.29,535.794 1079.29,536.961 1080.5,538C 1079.29,539.039 1078.29,540.206 1077.5,541.5C 1076.17,539.167 1076.17,536.833 1077.5,534.5 Z M 868.5,615.5 C 840.662,615.831 812.995,615.498 785.5,614.5C 805.132,595.368 824.632,576.035 844,556.5C 852,564.5 860,572.5 868,580.5C 868.5,592.162 868.667,603.829 868.5,615.5 Z M 1157.5,614.5 C 1130.67,615.498 1103.67,615.831 1076.5,615.5C 1076.33,602.829 1076.5,590.162 1077,577.5C 1084.01,570.319 1091.18,563.319 1098.5,556.5C 1118.19,575.855 1137.85,595.188 1157.5,614.5 Z M 1241.5,558.5 C 1294.97,611.465 1348.3,664.632 1401.5,718C 1325.5,718.5 1249.5,718.667 1173.5,718.5C 1173.33,687.832 1173.5,657.165 1174,626.5C 1196.7,603.965 1219.2,581.299 1241.5,558.5 Z M 705.5,560.5 C 727.799,582.298 749.965,604.298 772,626.5C 772.5,656.165 772.667,685.831 772.5,715.5C 698.833,715.667 625.166,715.5 551.5,715C 603.035,663.632 654.368,612.132 705.5,560.5 Z M 1050.5,604.5 C 1050.5,608.167 1050.5,611.833 1050.5,615.5C 1046.83,615.5 1043.17,615.5 1039.5,615.5C 1042.83,611.5 1046.5,607.833 1050.5,604.5 Z M 902.5,614.5 C 900.052,615.473 897.385,615.806 894.5,615.5C 894.336,612.813 894.503,610.146 895,607.5C 897.37,610.039 899.87,612.372 902.5,614.5 Z M 798.5,641.5 C 821.833,641.5 845.167,641.5 868.5,641.5C 868.5,666.167 868.5,690.833 868.5,715.5C 845.167,715.5 821.833,715.5 798.5,715.5C 798.5,690.833 798.5,666.167 798.5,641.5 Z M 894.5,641.5 C 906.171,641.333 917.838,641.5 929.5,642C 937.348,649.681 945.015,657.514 952.5,665.5C 933.479,684.854 914.479,704.187 895.5,723.5C 894.502,696.338 894.169,669.005 894.5,641.5 Z M 965.5,642.5 C 969.167,641.167 972.833,641.167 976.5,642.5C 974.537,643.96 972.704,645.627 971,647.5C 969.296,645.627 967.463,643.96 965.5,642.5 Z M 1013.5,641.5 C 1025.83,641.5 1038.17,641.5 1050.5,641.5C 1050.5,669.833 1050.5,698.167 1050.5,726.5C 1029.85,706.521 1009.52,686.188 989.5,665.5C 997.188,657.146 1005.19,649.146 1013.5,641.5 Z M 1076.5,641.5 C 1100.17,641.5 1123.83,641.5 1147.5,641.5C 1147.5,667.167 1147.5,692.833 1147.5,718.5C 1123.83,718.5 1100.17,718.5 1076.5,718.5C 1076.5,692.833 1076.5,667.167 1076.5,641.5 Z M 969.5,684.5 C 970.552,684.351 971.552,684.517 972.5,685C 989.681,702.014 1006.68,719.181 1023.5,736.5C 1007.51,752.986 991.347,769.319 975,785.5C 957.319,767.986 939.819,750.319 922.5,732.5C 938.188,716.479 953.855,700.479 969.5,684.5 Z M 535.5,742.5 C 614.332,741.501 693.332,741.167 772.5,741.5C 772.833,820.668 772.499,899.668 771.5,978.5C 693.167,899.5 614.5,820.833 535.5,742.5 Z M 798.5,741.5 C 830.835,741.333 863.168,741.5 895.5,742C 916.014,762.347 936.347,782.847 956.5,803.5C 904.146,856.188 851.812,908.854 799.5,961.5C 798.501,888.335 798.167,815.002 798.5,741.5 Z M 1147.5,743.5 C 1147.83,815.002 1147.5,886.335 1146.5,957.5C 1095.7,906.201 1044.7,855.035 993.5,804C 1013.5,784 1033.5,764 1053.5,744C 1084.83,743.5 1116.16,743.333 1147.5,743.5 Z M 1173.5,743.5 C 1250.5,743.333 1327.5,743.5 1404.5,744C 1327.63,820.701 1250.97,897.535 1174.5,974.5C 1173.5,897.668 1173.17,820.668 1173.5,743.5 Z M 1143.5,990.5 C 1031.33,990.833 919.332,990.5 807.5,989.5C 863.479,933.854 919.479,878.188 975.5,822.5C 1031.85,878.188 1087.85,934.188 1143.5,990.5 Z"/></g>
<g><path style="opacity:0.376" fill="#ff8080" d="M 1144.5,87.5 C 1029.67,87.1672 914.999,87.5005 800.5,88.5C 799.711,88.2172 799.044,87.7172 798.5,87C 914.001,86.1674 1029.33,86.3341 1144.5,87.5 Z"/></g>
<g><path style="opacity:0.522" fill="#ff7171" d="M 769.5,340.5 C 769.833,260.665 769.499,180.998 768.5,101.5C 768.783,100.711 769.283,100.044 770,99.5C 770.832,180.001 770.666,260.334 769.5,340.5 Z"/></g>
<g><path style="opacity:0.412" fill="#ff8181" d="M 796.5,120.5 C 795.501,193.665 795.167,266.998 795.5,340.5C 794.334,266.668 794.168,192.668 795,118.5C 795.717,119.044 796.217,119.711 796.5,120.5 Z"/></g>
<g><path style="opacity:0.439" fill="#ff7070" d="M 1143.5,126.5 C 1143.56,125.957 1143.89,125.624 1144.5,125.5C 1145.83,198.332 1145.83,270.999 1144.5,343.5C 1144.83,270.998 1144.5,198.665 1143.5,126.5 Z"/></g>
<g><path style="opacity:0.522" fill="#ff7171" d="M 530.5,339.5 C 609.998,340.499 689.665,340.833 769.5,340.5C 689.334,341.666 609.001,341.832 528.5,341C 529.044,340.283 529.711,339.783 530.5,339.5 Z"/></g>
<g><path style="opacity:0.29" fill="#ff9998" d="M 1015.5,436.5 C 1027.17,436.5 1038.83,436.5 1050.5,436.5C 1050.83,407.662 1050.5,378.995 1049.5,350.5C 1049.78,349.711 1050.28,349.044 1051,348.5C 1051.5,378.165 1051.67,407.831 1051.5,437.5C 1039.32,437.828 1027.32,437.495 1015.5,436.5 Z"/></g>
<g><path style="opacity:0.412" fill="#ff8080" d="M 895.5,352.5 C 894.502,380.328 894.169,408.328 894.5,436.5C 893.336,408.003 893.17,379.336 894,350.5C 894.717,351.044 895.217,351.711 895.5,352.5 Z"/></g>
<g><path style="opacity:0.808" fill="#ff6b51" d="M 1018.5,342.5 C 1020.23,342.843 1020.73,343.843 1020,345.5C 1004.58,361.421 988.748,376.755 972.5,391.5C 987.965,375.535 1003.63,359.701 1019.5,344C 1018.94,343.617 1018.61,343.117 1018.5,342.5 Z"/></g>
<g><path style="opacity:0.416" fill="#ff8181" d="M 769.5,366.5 C 695.998,366.167 622.665,366.501 549.5,367.5C 548.711,367.217 548.044,366.717 547.5,366C 621.668,365.168 695.668,365.334 769.5,366.5 Z"/></g>
<g><path style="opacity:0.376" fill="#ff8080" d="M 520.5,374.5 C 519.167,486.5 519.167,598.5 520.5,710.5C 520.44,711.043 520.107,711.376 519.5,711.5C 518.333,598.501 518.167,485.501 519,372.5C 519.717,373.044 520.217,373.711 520.5,374.5 Z"/></g>
<g><path style="opacity:0.863" fill="#ff6c52" d="M 952.5,409.5 C 953.573,410.251 953.74,411.251 953,412.5C 944.912,421.093 936.412,429.093 927.5,436.5C 936.223,427.78 944.556,418.78 952.5,409.5 Z"/></g>
<g><path style="opacity:0.384" fill="#ff8281" d="M 964.5,435.5 C 969.167,436.833 973.833,436.833 978.5,435.5C 979.289,435.783 979.956,436.283 980.5,437C 974.804,437.83 969.137,437.663 963.5,436.5C 963.624,435.893 963.957,435.56 964.5,435.5 Z"/></g>
<g><path style="opacity:0.439" fill="#ff7070" d="M 868.5,462.5 C 840.995,462.169 813.662,462.502 786.5,463.5C 785.957,463.44 785.624,463.107 785.5,462.5C 813.33,461.171 840.997,461.171 868.5,462.5 Z"/></g>
<g><path style="opacity:0.439" fill="#ff7171" d="M 1076.5,462.5 C 1103,461.171 1129.67,461.171 1156.5,462.5C 1156.38,463.107 1156.04,463.44 1155.5,463.5C 1129.34,462.502 1103.01,462.169 1076.5,462.5 Z"/></g>
<g><path style="opacity:0.459" fill="#ff8786" d="M 894.5,462.5 C 894.205,464.735 894.539,466.735 895.5,468.5C 895.217,469.289 894.717,469.956 894,470.5C 893.199,467.633 893.366,464.966 894.5,462.5 Z"/></g>
<g><path style="opacity:0.318" fill="#ff9290" d="M 1049.5,470.5 C 1050.47,468.052 1050.81,465.385 1050.5,462.5C 1047.61,462.194 1044.95,462.527 1042.5,463.5C 1041.71,463.217 1041.04,462.717 1040.5,462C 1044.15,461.501 1047.82,461.335 1051.5,461.5C 1051.67,465.182 1051.5,468.848 1051,472.5C 1050.28,471.956 1049.78,471.289 1049.5,470.5 Z"/></g>
<g><path style="opacity:0.961" fill="#ff705e" d="M 894.5,462.5 C 896.966,461.366 899.633,461.199 902.5,462C 900.929,465.074 898.596,467.24 895.5,468.5C 896.96,466.537 898.627,464.704 900.5,463C 898.527,462.505 896.527,462.338 894.5,462.5 Z"/></g>
<g><path style="opacity:0.796" fill="#ff6b51" d="M 868.5,495.5 C 861.426,504.078 853.76,512.245 845.5,520C 844.563,520.692 843.897,520.525 843.5,519.5C 851.833,511.5 860.167,503.5 868.5,495.5 Z"/></g>
<g><path style="opacity:0.439" fill="#ff7271" d="M 867.5,532.5 C 867.56,531.957 867.893,531.624 868.5,531.5C 869.833,536.167 869.833,540.833 868.5,545.5C 867.893,545.376 867.56,545.043 867.5,544.5C 868.833,540.5 868.833,536.5 867.5,532.5 Z"/></g>
<g><path style="opacity:0.561" fill="#ff5956" d="M 1077.5,534.5 C 1076.17,536.833 1076.17,539.167 1077.5,541.5C 1077.44,542.043 1077.11,542.376 1076.5,542.5C 1075.34,539.216 1075.18,535.882 1076,532.5C 1076.72,533.044 1077.22,533.711 1077.5,534.5 Z"/></g>
<g><path style="opacity:0.796" fill="#ff6b51" d="M 825.5,537.5 C 826.525,537.897 826.692,538.563 826,539.5C 808.915,557.087 791.415,574.087 773.5,590.5C 790.833,572.833 808.167,555.167 825.5,537.5 Z"/></g>
<g><path style="opacity:0.439" fill="#ff7171" d="M 785.5,614.5 C 812.995,615.498 840.662,615.831 868.5,615.5C 840.664,616.829 812.664,616.829 784.5,615.5C 784.624,614.893 784.957,614.56 785.5,614.5 Z"/></g>
<g><path style="opacity:0.439" fill="#ff6e6d" d="M 902.5,614.5 C 903.043,614.56 903.376,614.893 903.5,615.5C 900.355,616.803 897.355,616.803 894.5,615.5C 897.385,615.806 900.052,615.473 902.5,614.5 Z"/></g>
<g><path style="opacity:0.439" fill="#ff7e7d" d="M 1039.5,615.5 C 1043.17,615.5 1046.83,615.5 1050.5,615.5C 1050.5,611.833 1050.5,608.167 1050.5,604.5C 1051.5,607.722 1051.84,611.722 1051.5,616.5C 1046.72,616.835 1042.72,616.502 1039.5,615.5 Z"/></g>
<g><path style="opacity:0.439" fill="#ff7171" d="M 1157.5,614.5 C 1158.29,614.783 1158.96,615.283 1159.5,616C 1131.66,616.83 1104,616.664 1076.5,615.5C 1103.67,615.831 1130.67,615.498 1157.5,614.5 Z"/></g>
<g><path style="opacity:0.377" fill="#ff7d7d" d="M 976.5,642.5 C 972.833,641.167 969.167,641.167 965.5,642.5C 964.957,642.44 964.624,642.107 964.5,641.5C 968.833,640.167 973.167,640.167 977.5,641.5C 977.376,642.107 977.043,642.44 976.5,642.5 Z"/></g>
<g><path style="opacity:0.376" fill="#ff8080" d="M 894.5,641.5 C 894.169,669.005 894.502,696.338 895.5,723.5C 895.44,724.043 895.107,724.376 894.5,724.5C 893.171,696.67 893.171,669.003 894.5,641.5 Z"/></g>
<g><path style="opacity:0.251" fill="#ff9998" d="M 1013.5,641.5 C 1025.99,640.505 1038.66,640.171 1051.5,640.5C 1051.83,669.907 1051.5,698.574 1050.5,726.5C 1050.5,698.167 1050.5,669.833 1050.5,641.5C 1038.17,641.5 1025.83,641.5 1013.5,641.5 Z"/></g>
<g><path style="opacity:0.439" fill="#ff7171" d="M 772.5,741.5 C 693.332,741.167 614.332,741.501 535.5,742.5C 534.711,742.217 534.044,741.717 533.5,741C 613.334,740.168 693.001,740.334 772.5,741.5 Z"/></g>
<g><path style="opacity:0.439" fill="#ff7171" d="M 772.5,741.5 C 773.666,820.999 773.832,900.666 773,980.5C 772.283,979.956 771.783,979.289 771.5,978.5C 772.499,899.668 772.833,820.668 772.5,741.5 Z"/></g>
<g><path style="opacity:0.376" fill="#ff8181" d="M 798.5,741.5 C 798.167,815.002 798.501,888.335 799.5,961.5C 799.217,962.289 798.717,962.956 798,963.5C 797.168,889.332 797.334,815.332 798.5,741.5 Z"/></g>
<g><path style="opacity:0.439" fill="#ff7171" d="M 1147.5,743.5 C 1148.83,815.001 1148.83,886.668 1147.5,958.5C 1146.89,958.376 1146.56,958.043 1146.5,957.5C 1147.5,886.335 1147.83,815.002 1147.5,743.5 Z"/></g>
<g><path style="opacity:0.376" fill="#ff8181" d="M 1173.5,743.5 C 1173.17,820.668 1173.5,897.668 1174.5,974.5C 1174.22,975.289 1173.72,975.956 1173,976.5C 1172.17,898.666 1172.33,820.999 1173.5,743.5 Z"/></g>
<g><path style="opacity:0.439" fill="#ff7171" d="M 807.5,989.5 C 919.332,990.5 1031.33,990.833 1143.5,990.5C 1031.57,991.665 918.903,991.832 805.5,991C 806.044,990.283 806.711,989.783 807.5,989.5 Z"/></g>
</svg>
