<svg width="26" height="26" viewBox="0 0 26 26" fill="none" xmlns="http://www.w3.org/2000/svg">
<g clip-path="url(#clip0_5_538)">
<path d="M13 0C5.83158 0 0 5.83158 0 13C0 20.1684 5.83158 26 13 26C20.1684 26 26 20.1684 26 13C26 5.83158 20.1684 0 13 0ZM13 23.8333C7.0265 23.8333 2.16667 18.9735 2.16667 13C2.16667 7.0265 7.0265 2.16667 13 2.16667C18.9735 2.16667 23.8333 7.0265 23.8333 13C23.8333 18.9735 18.9735 23.8333 13 23.8333ZM17.3333 15.1667C17.3333 16.9585 15.8752 18.4167 14.0833 18.4167V19.5C14.0833 20.0991 13.5991 20.5833 13 20.5833C12.4009 20.5833 11.9167 20.0991 11.9167 19.5V18.4167H11.6263C10.4704 18.4167 9.39142 17.7948 8.81183 16.7928C8.51175 16.2738 8.68942 15.6119 9.20617 15.3129C9.72508 15.0107 10.3881 15.1905 10.686 15.7073C10.8799 16.0431 11.2396 16.25 11.6253 16.25H14.0822C14.6803 16.25 15.1656 15.7647 15.1656 15.1667C15.1656 14.7572 14.872 14.4105 14.4679 14.3433L11.1735 13.7941C9.71967 13.5525 8.66558 12.3067 8.66558 10.8333C8.66558 9.0415 10.1237 7.58333 11.9156 7.58333V6.5C11.9156 5.902 12.3998 5.41667 12.9989 5.41667C13.598 5.41667 14.0822 5.902 14.0822 6.5V7.58333H14.3726C15.5285 7.58333 16.6075 8.20625 17.1871 9.20833C17.4872 9.72617 17.3095 10.3881 16.7928 10.6882C16.2728 10.9883 15.6108 10.8106 15.3129 10.2928C15.119 9.958 14.7593 9.75108 14.3737 9.75108H11.9167C11.3187 9.75108 10.8333 10.2375 10.8333 10.8344C10.8333 11.2439 11.1269 11.5906 11.531 11.6578L14.8254 12.207C16.2793 12.4486 17.3333 13.6944 17.3333 15.1678V15.1667Z" fill="#000000"/>
</g>
<defs>
<clipPath id="clip0_5_538">
<rect width="26" height="26" fill="white"/>
</clipPath>
</defs>
</svg>
